<svg xmlns="http://www.w3.org/2000/svg" viewBox="0 0 1000 1000"><defs><style>.cls-1{fill:none}.cls-2{clip-path:url(#clip-path)}.cls-3{fill:#1e88e5}.cls-4{fill:#fdd835}</style><clipPath id="clip-path"><path class="cls-1" d="M0 0h1000v1000H0z"/></clipPath></defs><title>ioit-logo</title><g id="Production"><g class="cls-2" id="BlackWhite"><g id="Flag"><path class="cls-3" d="M943.76 269.41A450 450 0 0 1 963 400c0 248.53-201.47 450-450 450S63 648.53 63 400a447.89 447.89 0 0 1 66.94-236.25A498.18 498.18 0 0 0 0 500c0 276.14 223.86 500 500 500s500-223.86 500-500a497.83 497.83 0 0 0-56.24-230.59z"/><path class="cls-4" d="M946.85 688.88v-.1a486 486 0 0 0 30.83-272.44c-8 231.42-186 420.43-412.72 445.77 178.75-9.91 326.75-79.45 381.89-173.23zM54.89 479.92a467.35 467.35 0 0 1 4.67-183.18A487.45 487.45 0 0 0 15 500a485.1 485.1 0 0 0 344.89 464.47C198 900.25 75.62 711.12 54.89 479.92z"/></g><path class="cls-3" d="M308.88 647.54V219.22h90.82v428.32zm363.86 0h-90.82V294.8H465.61v-75.58h323.44v75.58H672.74z" id="Text"/></g></g></svg>